<?xml version="1.0" encoding="utf-8"?>
<!-- Generator: Adobe Illustrator 26.0.3, SVG Export Plug-In . SVG Version: 6.00 Build 0)  -->
<svg version="1.0" id="katman_1" xmlns="http://www.w3.org/2000/svg" xmlns:xlink="http://www.w3.org/1999/xlink" x="0px" y="0px"
	 viewBox="0 0 464 352" style="enable-background:new 0 0 464 352;" xml:space="preserve">
<style type="text/css">
	.st0{fill:#B5010F;}
</style>
<g>
	<path class="st0" d="M356.7,55.1c13.5,13.5-23.9,72.8-30.3,79.2c-6.3,6.3-22.4,0.5-35.9-13c-13.5-13.5-19.3-29.6-13-35.9
		C283.9,79,343.2,41.6,356.7,55.1"/>
	<path class="st0" d="M167.3,69.4c-20.6-11.7-50-24.7-59.3-15.4c-9.5,9.5,4,39.5,15.9,60.1C134.4,95.8,149.4,80.4,167.3,69.4"/>
	<path class="st0" d="M336.1,129.6c1.9,6.4,1.6,11.8-1.5,14.8c-7.2,7.2-26.6-0.5-44.1-17.1c-1.2-1.1-2.4-2.2-3.6-3.4
		c-6.3-6.3-11.3-13.1-14.4-19.3c-6.1-11-7.7-20.7-3-25.4c2.5-2.5,6.6-3.2,11.5-2.3c3.2-2,7-4.3,11.2-6.6
		c-16.9-8.8-36.2-13.8-56.6-13.8c-67.7,0-122.6,54.9-122.6,122.6c0,67.7,54.9,122.6,122.6,122.6s122.6-54.9,122.6-122.6
		c0-21.9-5.7-42.4-15.8-60.2C340.2,122.9,338,126.5,336.1,129.6"/>
</g>
</svg>
